<svg width="303" height="401" viewBox="0 0 303 401" fill="none" xmlns="http://www.w3.org/2000/svg">
            <path fill-rule="evenodd" clip-rule="evenodd" d="M123.814 1.29449C149.057 4.27742 167.449 26.2005 166.46 51.1752C166.374 54.1024 166.264 56.9467 166.156 59.7232C164.584 100.155 163.573 126.189 248.584 183.944C285.041 207.555 306.973 250.53 301.531 296.579C293.906 361.112 235.41 407.243 170.878 399.618C117.734 393.338 77.0694 352.559 68.6304 302.32C58.367 249.108 54.6029 245.115 26.6563 215.473L25.5896 214.342C7.95431 195.885 -1.61439 169.992 1.6153 142.661C4.42269 118.903 16.3809 98.456 33.5492 84.4266C63.5261 59.8732 65.0062 55.4933 71.1006 37.4589C71.4145 36.53 71.7406 35.5649 72.0835 34.5589C78.9837 12.9382 100.435 -1.46823 123.814 1.29449Z" fill="url(#paint0_linear_21_327)"></path>
            <defs>
            <linearGradient id="paint0_linear_21_327" x1="5.5" y1="126.5" x2="306.5" y2="311.5" gradientUnits="userSpaceOnUse">
            <stop offset="0.0104167" stop-color="#2D142C"></stop>
            <stop offset="0.109375" stop-color="#510A32"></stop>
            <stop offset="0.53125" stop-color="#C72C41"></stop>
            <stop offset="0.8125" stop-color="#F04440"></stop>
            <stop offset="0.979167" stop-color="#FF7774"></stop>
            </linearGradient>
            </defs>
            </svg>